<mxfile host="65bd71144e">
    <diagram id="zujQ-UzVMzeJ8Ua3-dks" name="Page-1">
        <mxGraphModel dx="1054" dy="617" grid="1" gridSize="10" guides="1" tooltips="1" connect="1" arrows="1" fold="1" page="1" pageScale="1" pageWidth="827" pageHeight="1169" math="0" shadow="0">
            <root>
                <mxCell id="0"/>
                <mxCell id="1" parent="0"/>
                <mxCell id="2" value="Tchat" style="html=1;" vertex="1" parent="1">
                    <mxGeometry x="350" y="20" width="110" height="50" as="geometry"/>
                </mxCell>
                <mxCell id="3" value="Elève" style="shape=umlActor;verticalLabelPosition=bottom;verticalAlign=top;html=1;" vertex="1" parent="1">
                    <mxGeometry x="50" y="240" width="30" height="60" as="geometry"/>
                </mxCell>
                <mxCell id="4" value="Bénévole" style="shape=umlActor;verticalLabelPosition=bottom;verticalAlign=top;html=1;" vertex="1" parent="1">
                    <mxGeometry x="50" y="680" width="30" height="60" as="geometry"/>
                </mxCell>
                <mxCell id="5" value="" style="endArrow=open;endFill=1;endSize=12;html=1;entryX=0.5;entryY=0;entryDx=0;entryDy=0;entryPerimeter=0;" edge="1" parent="1" target="4">
                    <mxGeometry width="160" relative="1" as="geometry">
                        <mxPoint x="65" y="320" as="sourcePoint"/>
                        <mxPoint x="570" y="490" as="targetPoint"/>
                    </mxGeometry>
                </mxCell>
                <mxCell id="6" value="liste de contact" style="ellipse;whiteSpace=wrap;html=1;fillColor=#008a00;fontColor=#ffffff;strokeColor=#005700;" vertex="1" parent="1">
                    <mxGeometry x="200" y="390" width="140" height="70" as="geometry"/>
                </mxCell>
                <mxCell id="8" value="historique messages" style="ellipse;whiteSpace=wrap;html=1;fillColor=#008a00;fontColor=#ffffff;strokeColor=#005700;" vertex="1" parent="1">
                    <mxGeometry x="200" y="540" width="140" height="70" as="geometry"/>
                </mxCell>
                <mxCell id="9" value="" style="endArrow=open;endFill=1;endSize=12;html=1;entryX=0;entryY=0.5;entryDx=0;entryDy=0;" edge="1" parent="1" target="6">
                    <mxGeometry width="160" relative="1" as="geometry">
                        <mxPoint x="70" y="490" as="sourcePoint"/>
                        <mxPoint x="230" y="490" as="targetPoint"/>
                        <Array as="points">
                            <mxPoint x="140" y="490"/>
                            <mxPoint x="140" y="425"/>
                        </Array>
                    </mxGeometry>
                </mxCell>
                <mxCell id="11" value="" style="endArrow=open;endFill=1;endSize=12;html=1;entryX=0;entryY=0.5;entryDx=0;entryDy=0;" edge="1" parent="1" target="8">
                    <mxGeometry width="160" relative="1" as="geometry">
                        <mxPoint x="70" y="490" as="sourcePoint"/>
                        <mxPoint x="230" y="490" as="targetPoint"/>
                        <Array as="points">
                            <mxPoint x="140" y="490"/>
                            <mxPoint x="140" y="575"/>
                        </Array>
                    </mxGeometry>
                </mxCell>
                <mxCell id="12" value="ajouter contact" style="ellipse;whiteSpace=wrap;html=1;fillColor=#0050ef;fontColor=#ffffff;strokeColor=#001DBC;" vertex="1" parent="1">
                    <mxGeometry x="460" y="130" width="140" height="70" as="geometry"/>
                </mxCell>
                <mxCell id="13" value="supprimer contact" style="ellipse;whiteSpace=wrap;html=1;fillColor=#0050ef;fontColor=#ffffff;strokeColor=#001DBC;" vertex="1" parent="1">
                    <mxGeometry x="460" y="280" width="140" height="70" as="geometry"/>
                </mxCell>
                <mxCell id="14" value="envoyer message" style="ellipse;whiteSpace=wrap;html=1;fillColor=#0050ef;fontColor=#ffffff;strokeColor=#001DBC;" vertex="1" parent="1">
                    <mxGeometry x="460" y="450" width="140" height="70" as="geometry"/>
                </mxCell>
                <mxCell id="15" value="include" style="endArrow=open;endSize=12;dashed=1;html=1;entryX=0;entryY=0.5;entryDx=0;entryDy=0;" edge="1" parent="1" target="12">
                    <mxGeometry x="0.3735" y="15" width="160" relative="1" as="geometry">
                        <mxPoint x="270" y="390" as="sourcePoint"/>
                        <mxPoint x="430" y="390" as="targetPoint"/>
                        <Array as="points">
                            <mxPoint x="270" y="165"/>
                        </Array>
                        <mxPoint as="offset"/>
                    </mxGeometry>
                </mxCell>
                <mxCell id="16" value="include" style="endArrow=open;endSize=12;dashed=1;html=1;entryX=0.5;entryY=1;entryDx=0;entryDy=0;" edge="1" parent="1" target="13">
                    <mxGeometry x="-0.3965" y="15" width="160" relative="1" as="geometry">
                        <mxPoint x="340" y="424.5" as="sourcePoint"/>
                        <mxPoint x="500" y="424.5" as="targetPoint"/>
                        <Array as="points">
                            <mxPoint x="530" y="425"/>
                        </Array>
                        <mxPoint as="offset"/>
                    </mxGeometry>
                </mxCell>
                <mxCell id="17" value="include" style="endArrow=open;endSize=12;dashed=1;html=1;entryX=0;entryY=0.5;entryDx=0;entryDy=0;" edge="1" parent="1" target="14">
                    <mxGeometry x="0.1628" y="15" width="160" relative="1" as="geometry">
                        <mxPoint x="270" y="460" as="sourcePoint"/>
                        <mxPoint x="430" y="460" as="targetPoint"/>
                        <Array as="points">
                            <mxPoint x="270" y="485"/>
                        </Array>
                        <mxPoint as="offset"/>
                    </mxGeometry>
                </mxCell>
                <mxCell id="18" value="supprimer message" style="ellipse;whiteSpace=wrap;html=1;fillColor=#0050ef;fontColor=#ffffff;strokeColor=#001DBC;" vertex="1" parent="1">
                    <mxGeometry x="460" y="620" width="140" height="70" as="geometry"/>
                </mxCell>
                <mxCell id="19" value="envoyer message" style="ellipse;whiteSpace=wrap;html=1;fillColor=#0050ef;fontColor=#ffffff;strokeColor=#001DBC;" vertex="1" parent="1">
                    <mxGeometry x="460" y="890" width="140" height="70" as="geometry"/>
                </mxCell>
                <mxCell id="20" value="enregister un nouveau contact" style="ellipse;whiteSpace=wrap;html=1;fillColor=#0050ef;fontColor=#ffffff;strokeColor=#001DBC;" vertex="1" parent="1">
                    <mxGeometry x="460" y="750" width="140" height="70" as="geometry"/>
                </mxCell>
                <mxCell id="21" value="include" style="endArrow=open;endSize=12;dashed=1;html=1;entryX=0.5;entryY=0;entryDx=0;entryDy=0;" edge="1" parent="1" target="18">
                    <mxGeometry x="-0.2344" y="15" width="160" relative="1" as="geometry">
                        <mxPoint x="340" y="574.5" as="sourcePoint"/>
                        <mxPoint x="500" y="574.5" as="targetPoint"/>
                        <Array as="points">
                            <mxPoint x="530" y="575"/>
                        </Array>
                        <mxPoint as="offset"/>
                    </mxGeometry>
                </mxCell>
                <mxCell id="22" value="include" style="endArrow=open;endSize=12;dashed=1;html=1;entryX=0;entryY=0.5;entryDx=0;entryDy=0;exitX=0.826;exitY=0.957;exitDx=0;exitDy=0;exitPerimeter=0;" edge="1" parent="1" source="8" target="20">
                    <mxGeometry x="0.5031" y="15" width="160" relative="1" as="geometry">
                        <mxPoint x="270" y="610" as="sourcePoint"/>
                        <mxPoint x="430" y="610" as="targetPoint"/>
                        <Array as="points">
                            <mxPoint x="316" y="785"/>
                        </Array>
                        <mxPoint as="offset"/>
                    </mxGeometry>
                </mxCell>
                <mxCell id="23" value="include" style="endArrow=open;endSize=12;dashed=1;html=1;exitX=0.243;exitY=0.933;exitDx=0;exitDy=0;exitPerimeter=0;" edge="1" parent="1" source="8">
                    <mxGeometry x="0.597" y="15" width="160" relative="1" as="geometry">
                        <mxPoint x="300" y="924.5" as="sourcePoint"/>
                        <mxPoint x="460" y="924.5" as="targetPoint"/>
                        <Array as="points">
                            <mxPoint x="234" y="925"/>
                        </Array>
                        <mxPoint as="offset"/>
                    </mxGeometry>
                </mxCell>
            </root>
        </mxGraphModel>
    </diagram>
</mxfile>